<svg version="1.0" xmlns="http://www.w3.org/2000/svg" width="442" height="334" viewBox="0 0 2222 1670" preserveAspectRatio="xMidYMid meet" style="">
<g transform="translate(0.000000,1670.000000) scale(1.000000,-1.000000)" fill="#0a3555" stroke="none" style="fill:rgb(10, 53, 85);stroke:none;color:rgb(251, 251, 254);stroke-width:1px;stroke-linecap:butt;stroke-linejoin:miter;opacity:1;font-family:&quot;Anthropic Sans&quot;, -apple-system, BlinkMacSystemFont, &quot;Segoe UI&quot;, sans-serif;font-size:16px;font-weight:400;text-anchor:start;dominant-baseline:auto">
<path d="M822 1646 c-34 -18 -60 -63 -73 -124 -20 -96 -2 -92 -373 -92 l-325&#xA;0 -20 -26 c-19 -24 -21 -40 -21 -160 l0 -134 318 0 c297 0 319 1 349 20 38 23&#xA;60 62 69 121 3 24 13 54 20 66 l14 23 690 2 689 3 23 22 c21 21 23 34 26 158&#xA;l4 135 -683 0 c-537 -1 -689 -3 -707 -14z" style="fill:rgb(10, 53, 85);stroke:none;color:rgb(251, 251, 254);stroke-width:1px;stroke-linecap:butt;stroke-linejoin:miter;opacity:1;font-family:&quot;Anthropic Sans&quot;, -apple-system, BlinkMacSystemFont, &quot;Segoe UI&quot;, sans-serif;font-size:16px;font-weight:400;text-anchor:start;dominant-baseline:auto"/>
<path d="M800 1072 c-30 -29 -40 -50 -50 -97 -21 -101 4 -95 -367 -95 l-324 0&#xA;-24 -25 c-24 -23 -25 -29 -25 -160 l0 -135 318 0 c233 0 324 4 342 13 37 18&#xA;69 73 76 130 13 93 -27 87 558 87 491 0 515 1 537 19 23 18 24 26 27 160 l4&#xA;141 -517 0 -517 0 -38 -38z" style="fill:rgb(10, 53, 85);stroke:none;color:rgb(251, 251, 254);stroke-width:1px;stroke-linecap:butt;stroke-linejoin:miter;opacity:1;font-family:&quot;Anthropic Sans&quot;, -apple-system, BlinkMacSystemFont, &quot;Segoe UI&quot;, sans-serif;font-size:16px;font-weight:400;text-anchor:start;dominant-baseline:auto"/>
<path d="M830 547 c-34 -17 -66 -68 -80 -129 -22 -94 1 -88 -365 -88 -408 0&#xA;-375 16 -375 -181 l0 -139 326 0 326 0 33 33 c31 31 55 88 55 133 0 11 10 30&#xA;23 42 23 22 28 22 351 22 l327 0 24 25 c24 23 25 29 25 160 l0 135 -322 0&#xA;c-238 0 -329 -4 -348 -13z" style="fill:rgb(10, 53, 85);stroke:none;color:rgb(251, 251, 254);stroke-width:1px;stroke-linecap:butt;stroke-linejoin:miter;opacity:1;font-family:&quot;Anthropic Sans&quot;, -apple-system, BlinkMacSystemFont, &quot;Segoe UI&quot;, sans-serif;font-size:16px;font-weight:400;text-anchor:start;dominant-baseline:auto"/>
</g>
</svg>
